REM DIRINDEX 1\2,1\3,1\4,1\5\6,1\5\7,1\8
REM DIRNAME cjc115,folder01,folder02,folder03,folder04,folder05,folder06,folder07
TITLE ""
FILE "095 【095】Unit5 (DATA FILE_長文問題に出現する専門用語5).mp3" MP3
  TRACK 01 AUDIO
    TITLE "0:"
    INDEX 01 00:00:00
  TRACK 02 AUDIO
    TITLE "8:cjc115_3684"
    INDEX 01 00:00:01
  TRACK 03 AUDIO
    TITLE "0:"
    INDEX 01 00:01:30
  TRACK 04 AUDIO
    TITLE "6:cjc115_3685"
    INDEX 01 00:01:73
  TRACK 05 AUDIO
    TITLE "0:"
    INDEX 01 00:03:51
  TRACK 06 AUDIO
    TITLE "7:cjc115_3686"
    INDEX 01 00:03:59
  TRACK 07 AUDIO
    TITLE "0:"
    INDEX 01 00:05:24
  TRACK 08 AUDIO
    TITLE "6:cjc115_3687"
    INDEX 01 00:06:33
  TRACK 09 AUDIO
    TITLE "0:"
    INDEX 01 00:07:72
  TRACK 10 AUDIO
    TITLE "7:cjc115_3688"
    INDEX 01 00:08:05
  TRACK 11 AUDIO
    TITLE "0:"
    INDEX 01 00:09:51
  TRACK 12 AUDIO
    TITLE "6:cjc115_3689"
    INDEX 01 00:10:57
  TRACK 13 AUDIO
    TITLE "0:"
    INDEX 01 00:12:07
  TRACK 14 AUDIO
    TITLE "7:cjc115_3690"
    INDEX 01 00:12:14
  TRACK 15 AUDIO
    TITLE "0:"
    INDEX 01 00:14:06
  TRACK 16 AUDIO
    TITLE "6:cjc115_3691"
    INDEX 01 00:15:11
  TRACK 17 AUDIO
    TITLE "0:"
    INDEX 01 00:16:24
  TRACK 18 AUDIO
    TITLE "7:cjc115_3692"
    INDEX 01 00:16:36
  TRACK 19 AUDIO
    TITLE "0:"
    INDEX 01 00:17:45
  TRACK 20 AUDIO
    TITLE "6:cjc115_3693"
    INDEX 01 00:18:52
  TRACK 21 AUDIO
    TITLE "0:"
    INDEX 01 00:20:36
  TRACK 22 AUDIO
    TITLE "7:cjc115_3694"
    INDEX 01 00:20:51
  TRACK 23 AUDIO
    TITLE "0:"
    INDEX 01 00:23:20
  TRACK 24 AUDIO
    TITLE "6:cjc115_3695"
    INDEX 01 00:24:27
  TRACK 25 AUDIO
    TITLE "0:"
    INDEX 01 00:26:03
  TRACK 26 AUDIO
    TITLE "7:cjc115_3696"
    INDEX 01 00:26:13
  TRACK 27 AUDIO
    TITLE "0:"
    INDEX 01 00:27:18
  TRACK 28 AUDIO
    TITLE "6:cjc115_3697"
    INDEX 01 00:28:27
  TRACK 29 AUDIO
    TITLE "0:"
    INDEX 01 00:29:50
  TRACK 30 AUDIO
    TITLE "7:cjc115_3698"
    INDEX 01 00:29:58
  TRACK 31 AUDIO
    TITLE "0:"
    INDEX 01 00:30:61
  TRACK 32 AUDIO
    TITLE "6:cjc115_3699"
    INDEX 01 00:31:71
  TRACK 33 AUDIO
    TITLE "0:"
    INDEX 01 00:33:22
  TRACK 34 AUDIO
    TITLE "7:cjc115_3700"
    INDEX 01 00:33:32
  TRACK 35 AUDIO
    TITLE "0:"
    INDEX 01 00:35:70
  TRACK 36 AUDIO
    TITLE "6:cjc115_3701"
    INDEX 01 00:37:05
  TRACK 37 AUDIO
    TITLE "0:"
    INDEX 01 00:38:22
  TRACK 38 AUDIO
    TITLE "7:cjc115_3702"
    INDEX 01 00:38:26
  TRACK 39 AUDIO
    TITLE "0:"
    INDEX 01 00:39:56
  TRACK 40 AUDIO
    TITLE "6:cjc115_3703"
    INDEX 01 00:40:66
  TRACK 41 AUDIO
    TITLE "0:"
    INDEX 01 00:42:29
  TRACK 42 AUDIO
    TITLE "7:cjc115_3704"
    INDEX 01 00:42:37
  TRACK 43 AUDIO
    TITLE "0:"
    INDEX 01 00:43:60
  TRACK 44 AUDIO
    TITLE "6:cjc115_3705"
    INDEX 01 00:44:65
  TRACK 45 AUDIO
    TITLE "0:"
    INDEX 01 00:46:06
  TRACK 46 AUDIO
    TITLE "7:cjc115_3706"
    INDEX 01 00:46:15
  TRACK 47 AUDIO
    TITLE "0:"
    INDEX 01 00:49:49
  TRACK 48 AUDIO
    TITLE "6:cjc115_3707"
    INDEX 01 00:50:60
  TRACK 49 AUDIO
    TITLE "0:"
    INDEX 01 00:51:73
  TRACK 50 AUDIO
    TITLE "7:cjc115_3708"
    INDEX 01 00:52:06
  TRACK 51 AUDIO
    TITLE "0:"
    INDEX 01 00:53:19
  TRACK 52 AUDIO
    TITLE "6:cjc115_3709"
    INDEX 01 00:54:30
  TRACK 53 AUDIO
    TITLE "0:"
    INDEX 01 00:55:53
  TRACK 54 AUDIO
    TITLE "7:cjc115_3710"
    INDEX 01 00:55:57
  TRACK 55 AUDIO
    TITLE "0:"
    INDEX 01 00:58:34
  TRACK 56 AUDIO
    TITLE "6:cjc115_3711"
    INDEX 01 00:59:41
  TRACK 57 AUDIO
    TITLE "0:"
    INDEX 01 01:00:66
  TRACK 58 AUDIO
    TITLE "7:cjc115_3712"
    INDEX 01 01:00:72
  TRACK 59 AUDIO
    TITLE "0:"
    INDEX 01 01:03:35
  TRACK 60 AUDIO
    TITLE "6:cjc115_3713"
    INDEX 01 01:04:45
  TRACK 61 AUDIO
    TITLE "0:"
    INDEX 01 01:05:58
  TRACK 62 AUDIO
    TITLE "7:cjc115_3714"
    INDEX 01 01:06:02
  TRACK 63 AUDIO
    TITLE "0:"
    INDEX 01 01:07:35
  TRACK 64 AUDIO
    TITLE "6:cjc115_3715"
    INDEX 01 01:08:42
  TRACK 65 AUDIO
    TITLE "0:"
    INDEX 01 01:09:52
  TRACK 66 AUDIO
    TITLE "7:cjc115_3716"
    INDEX 01 01:09:59
  TRACK 67 AUDIO
    TITLE "0:"
    INDEX 01 01:10:61
  TRACK 68 AUDIO
    TITLE "6:cjc115_3717"
    INDEX 01 01:11:74
  TRACK 69 AUDIO
    TITLE "0:"
    INDEX 01 01:13:00
  TRACK 70 AUDIO
    TITLE "7:cjc115_3718"
    INDEX 01 01:13:06
  TRACK 71 AUDIO
    TITLE "0:"
    INDEX 01 01:14:10
  TRACK 72 AUDIO
    TITLE "6:cjc115_3719"
    INDEX 01 01:15:23
  TRACK 73 AUDIO
    TITLE "0:"
    INDEX 01 01:16:36
  TRACK 74 AUDIO
    TITLE "7:cjc115_3720"
    INDEX 01 01:16:44
  TRACK 75 AUDIO
    TITLE "0:"
    INDEX 01 01:18:25
  TRACK 76 AUDIO
    TITLE "6:cjc115_3721"
    INDEX 01 01:19:32
  TRACK 77 AUDIO
    TITLE "0:"
    INDEX 01 01:20:73
  TRACK 78 AUDIO
    TITLE "7:cjc115_3722"
    INDEX 01 01:21:08
  TRACK 79 AUDIO
    TITLE "0:"
    INDEX 01 01:22:25
  TRACK 80 AUDIO
    TITLE "6:cjc115_3723"
    INDEX 01 01:23:36
  TRACK 81 AUDIO
    TITLE "0:"
    INDEX 01 01:25:04
  TRACK 82 AUDIO
    TITLE "7:cjc115_3724"
    INDEX 01 01:25:11
  TRACK 83 AUDIO
    TITLE "0:"
    INDEX 01 01:26:38
  TRACK 84 AUDIO
    TITLE "6:cjc115_3725"
    INDEX 01 01:27:48
  TRACK 85 AUDIO
    TITLE "0:"
    INDEX 01 01:28:69
  TRACK 86 AUDIO
    TITLE "7:cjc115_3726"
    INDEX 01 01:29:03
  TRACK 87 AUDIO
    TITLE "0:"
    INDEX 01 01:30:46
  TRACK 88 AUDIO
    TITLE "6:cjc115_3727"
    INDEX 01 01:31:55
  TRACK 89 AUDIO
    TITLE "0:"
    INDEX 01 01:32:55
  TRACK 90 AUDIO
    TITLE "7:cjc115_3728"
    INDEX 01 01:32:62
  TRACK 91 AUDIO
    TITLE "0:"
    INDEX 01 01:34:01
  TRACK 92 AUDIO
    TITLE "6:cjc115_3729"
    INDEX 01 01:35:10
  TRACK 93 AUDIO
    TITLE "0:"
    INDEX 01 01:36:45
  TRACK 94 AUDIO
    TITLE "7:cjc115_3730"
    INDEX 01 01:36:54
  TRACK 95 AUDIO
    TITLE "0:"
    INDEX 01 01:38:28
  TRACK 96 AUDIO
    TITLE "6:cjc115_3731"
    INDEX 01 01:39:37
  TRACK 97 AUDIO
    TITLE "0:"
    INDEX 01 01:40:60
  TRACK 98 AUDIO
    TITLE "7:cjc115_3732"
    INDEX 01 01:40:70
  TRACK 99 AUDIO
    TITLE "0:"
    INDEX 01 01:42:31
  TRACK 100 AUDIO
    TITLE "6:cjc115_3733"
    INDEX 01 01:43:43
  TRACK 101 AUDIO
    TITLE "0:"
    INDEX 01 01:45:06
  TRACK 102 AUDIO
    TITLE "7:cjc115_3734"
    INDEX 01 01:45:16
  TRACK 103 AUDIO
    TITLE "0:"
    INDEX 01 01:47:05
  TRACK 104 AUDIO
    TITLE "6:cjc115_3735"
    INDEX 01 01:48:14
  TRACK 105 AUDIO
    TITLE "0:"
    INDEX 01 01:49:49
  TRACK 106 AUDIO
    TITLE "7:cjc115_3736"
    INDEX 01 01:49:59
  TRACK 107 AUDIO
    TITLE "0:"
    INDEX 01 01:52:10
  TRACK 108 AUDIO
    TITLE "6:cjc115_3737"
    INDEX 01 01:53:20
  TRACK 109 AUDIO
    TITLE "0:"
    INDEX 01 01:55:15
  TRACK 110 AUDIO
    TITLE "7:cjc115_3738"
    INDEX 01 01:55:20
  TRACK 111 AUDIO
    TITLE "0:"
    INDEX 01 01:57:00
  TRACK 112 AUDIO
    TITLE "6:cjc115_3739"
    INDEX 01 01:58:09
  TRACK 113 AUDIO
    TITLE "0:"
    INDEX 01 01:59:24
  TRACK 114 AUDIO
    TITLE "7:cjc115_3740"
    INDEX 01 01:59:34
  TRACK 115 AUDIO
    TITLE "0:"
    INDEX 01 02:02:28
  TRACK 116 AUDIO
    TITLE "6:cjc115_3741"
    INDEX 01 02:03:38
  TRACK 117 AUDIO
    TITLE "0:"
    INDEX 01 02:05:05
  TRACK 118 AUDIO
    TITLE "7:cjc115_3742"
    INDEX 01 02:05:11
  TRACK 119 AUDIO
    TITLE "0:"
    INDEX 01 02:06:59
  TRACK 120 AUDIO
    TITLE "6:cjc115_3743"
    INDEX 01 02:07:69
  TRACK 121 AUDIO
    TITLE "0:"
    INDEX 01 02:09:24
  TRACK 122 AUDIO
    TITLE "7:cjc115_3744"
    INDEX 01 02:09:36
  TRACK 123 AUDIO
    TITLE "0:"
    INDEX 01 02:11:04
  TRACK 124 AUDIO
    TITLE "6:cjc115_3745"
    INDEX 01 02:12:13
  TRACK 125 AUDIO
    TITLE "0:"
    INDEX 01 02:13:48
  TRACK 126 AUDIO
    TITLE "7:cjc115_3746"
    INDEX 01 02:13:57
  TRACK 127 AUDIO
    TITLE "0:"
    INDEX 01 02:16:60
  TRACK 128 AUDIO
    TITLE "6:cjc115_3747"
    INDEX 01 02:17:71
  TRACK 129 AUDIO
    TITLE "0:"
    INDEX 01 02:19:50
  TRACK 130 AUDIO
    TITLE "7:cjc115_3748"
    INDEX 01 02:19:56
  TRACK 131 AUDIO
    TITLE "0:"
    INDEX 01 02:21:63
  TRACK 132 AUDIO
    TITLE "6:cjc115_3749"
    INDEX 01 02:22:72
  TRACK 133 AUDIO
    TITLE "0:"
    INDEX 01 02:24:49
  TRACK 134 AUDIO
    TITLE "7:cjc115_3750"
    INDEX 01 02:24:57
  TRACK 135 AUDIO
    TITLE "0:"
    INDEX 01 02:26:11
  TRACK 136 AUDIO
    TITLE "6:cjc115_3751"
    INDEX 01 02:27:20
  TRACK 137 AUDIO
    TITLE "0:"
    INDEX 01 02:28:69
  TRACK 138 AUDIO
    TITLE "7:cjc115_3752"
    INDEX 01 02:29:06
  TRACK 139 AUDIO
    TITLE "0:"
    INDEX 01 02:31:30
  TRACK 140 AUDIO
    TITLE "6:cjc115_3753"
    INDEX 01 02:32:39
  TRACK 141 AUDIO
    TITLE "0:"
    INDEX 01 02:34:32
  TRACK 142 AUDIO
    TITLE "7:cjc115_3754"
    INDEX 01 02:34:40
  TRACK 143 AUDIO
    TITLE "0:"
    INDEX 01 02:36:62
  TRACK 144 AUDIO
    TITLE "6:cjc115_3755"
    INDEX 01 02:37:70
  TRACK 145 AUDIO
    TITLE "0:"
    INDEX 01 02:39:55
  TRACK 146 AUDIO
    TITLE "7:cjc115_3756"
    INDEX 01 02:39:63
  TRACK 147 AUDIO
    TITLE "0:"
    INDEX 01 02:41:21
  TRACK 148 AUDIO
    TITLE "6:cjc115_3757"
    INDEX 01 02:42:28
  TRACK 149 AUDIO
    TITLE "0:"
    INDEX 01 02:44:07
  TRACK 150 AUDIO
    TITLE "7:cjc115_3758"
    INDEX 01 02:44:19
  TRACK 151 AUDIO
    TITLE "0:"
    INDEX 01 02:47:54
  TRACK 152 AUDIO
    TITLE "6:cjc115_3759"
    INDEX 01 02:48:64
  TRACK 153 AUDIO
    TITLE "0:"
    INDEX 01 02:50:29
  TRACK 154 AUDIO
    TITLE "7:cjc115_3760"
    INDEX 01 02:50:37
  TRACK 155 AUDIO
    TITLE "0:"
    INDEX 01 02:54:06
  TRACK 156 AUDIO
    TITLE "6:cjc115_3761"
    INDEX 01 02:55:11
  TRACK 157 AUDIO
    TITLE "0:"
    INDEX 01 02:56:49
  TRACK 158 AUDIO
    TITLE "7:cjc115_3762"
    INDEX 01 02:56:57
  TRACK 159 AUDIO
    TITLE "0:"
    INDEX 01 02:58:13
  TRACK 160 AUDIO
    TITLE "6:cjc115_3763"
    INDEX 01 02:59:20
  TRACK 161 AUDIO
    TITLE "0:"
    INDEX 01 03:00:67
  TRACK 162 AUDIO
    TITLE "7:cjc115_3764"
    INDEX 01 03:01:04
  TRACK 163 AUDIO
    TITLE "0:"
    INDEX 01 03:02:52
